<?xml version="1.0" encoding="UTF-8" standalone="no"?>
<svg
   viewBox="0 0 16 16"
   version="1.1"
   id="svg6"
   sodipodi:docname="actions-bolt-deepl.svg"
   inkscape:version="1.1.1 (3bf5ae0d25, 2021-09-20)"
   xmlns:inkscape="http://www.inkscape.org/namespaces/inkscape"
   xmlns:sodipodi="http://sodipodi.sourceforge.net/DTD/sodipodi-0.dtd"
   xmlns="http://www.w3.org/2000/svg"
   xmlns:svg="http://www.w3.org/2000/svg">
  <defs
     id="defs10">
    <clipPath
       clipPathUnits="userSpaceOnUse"
       id="clipPath4187">
      <path
         d="m 0,425.197 708.661,0 L 708.661,0 0,0 0,425.197 Z"
         id="path4189" />
    </clipPath>
  </defs>
  <sodipodi:namedview
     id="namedview8"
     pagecolor="#ffffff"
     bordercolor="#666666"
     borderopacity="1.0"
     inkscape:pageshadow="2"
     inkscape:pageopacity="0.0"
     inkscape:pagecheckerboard="0"
     showgrid="false"
     inkscape:zoom="26"
     inkscape:cx="4.3653846"
     inkscape:cy="11.826923"
     inkscape:window-width="1920"
     inkscape:window-height="1017"
     inkscape:window-x="1912"
     inkscape:window-y="-8"
     inkscape:window-maximized="1"
     inkscape:current-layer="g4211" />
  <g
     class="icon-color"
     id="g4">
    <g
       id="g4185"
       clip-path="url(#clipPath4187)"
       transform="matrix(0.24153814,0,0,-0.24153814,-51.209928,56.609291)">
      <g
         id="g4211"
         transform="matrix(0.86108922,0,0,0.86108922,255.12259,200.50914)">
        <path
           id="path4213"
           d="m 0,0 c -2.797,0 -5.063,2.266 -5.063,5.063 0,0.295 0.025,0.584 0.075,0.865 L -17.096,12.9 c -0.881,-0.744 -2.02,-1.193 -3.263,-1.193 -2.797,0 -5.064,2.267 -5.064,5.063 0,2.796 2.267,5.063 5.064,5.063 2.797,0 5.064,-2.267 5.064,-5.063 0,-0.322 -0.033,-0.637 -0.091,-0.943 L -3.322,8.881 c 0.889,0.775 2.051,1.245 3.322,1.245 2.795,0 5.062,-2.267 5.062,-5.063 C 5.062,2.266 2.795,0 0,0 m -15.357,-6.724 c 0,-2.796 -2.266,-5.063 -5.063,-5.063 -2.795,0 -5.062,2.267 -5.062,5.063 0,2.797 2.267,5.064 5.062,5.064 1.257,0 2.405,-0.459 3.29,-1.217 l 8.827,5.073 c 0.377,-1.089 0.963,-2.081 1.708,-2.929 l -8.843,-5.083 c 0.052,-0.295 0.081,-0.598 0.081,-0.908 M 15.087,24.175 -8.955,37.913 c -1.637,0.935 -3.647,0.935 -5.284,0 l -24.04,-13.738 c -1.66,-0.948 -2.684,-2.714 -2.684,-4.624 V -8.395 c 0,-1.902 1.015,-3.661 2.663,-4.612 l 41.387,-23.889 0.007,16.968 12.01,6.921 c 1.65,0.951 2.666,2.71 2.666,4.614 v 27.944 c 0,1.91 -1.024,3.676 -2.683,4.624" />
      </g>
    </g>
  </g>
</svg>
